<svg viewBox="0 0 495 602" xmlns="http://www.w3.org/2000/svg" xmlns:xlink="http://www.w3.org/1999/xlink"><title>footer-apple</title><desc>Created with Sketch.</desc><defs/><g id="Page-1" stroke="none" stroke-width="1" fill="" fill-rule="evenodd"><g id="footer-apple" fill-rule="nonzero" fill="#081329"><path d="M478.502277 202.919896C442.526087 150.629907 386.764182 143.485428 367.168944 142.915768 320.335611 138.002456 274.907039 170.852817 251.049896 170.852817 226.716563 170.852817 189.978468 143.390485 150.38323 144.197502 99.4308487 144.980784 51.764182 174.389453 25.6213249 220.057151-28.3310561 313.172734 11.9070392 450.00968 63.5975154 525.275933 89.4546582 562.137647 119.668944 603.295541 159.216563 601.847657 197.907039 600.257358 212.35942 577.257358 259.049896 577.257358 305.311801 577.257358 318.88323 601.847657 359.216563 600.92196 400.740373 600.257358 426.88323 563.894097 451.835611 526.700082 481.716563 484.45034 493.716563 442.841465 494.192753 440.705242 493.216563 440.372941 413.549896 410.062311 412.764182 318.370877 412.073706 241.870361 475.597515 204.65261 478.502277 202.919896z" id="Shape"/><path d="M329.085577 97.0557276C349.895101 71.1124871 364.133196 35.8173375 360.180815.0 330.061767 1.32920537 292.395101 20.7688338 270.704624 46.1424149 251.514148 68.501548 234.371291 105.149639 238.799863 139.614035 272.633196 142.130031 307.371291 122.595459 329.085577 97.0557276v0z" id="Shape"/></g></g></svg>